# Blender 4.4.0
# www.blender.org
mtllib round_airlock_door.mtl
o doorLeft
v -0.256250 1.000000 0.437500
v 0.250000 3.187500 0.187500
v -0.250000 3.187500 0.187500
v -0.250000 2.875000 0.187500
v 0.250000 2.875000 0.187500
v 0.250000 3.187500 -0.125000
v -0.250000 2.875000 -0.125000
v 0.250000 2.875000 -0.125000
v -0.250000 3.187500 -0.125000
v 0.187500 3.187500 -0.187500
v -0.187500 2.875000 -0.187500
v 0.187500 2.875000 -0.187500
v -0.187500 3.187500 -0.187500
v 0.250000 2.562500 0.187500
v -0.250000 2.562500 0.187500
v -0.250000 2.250000 0.187500
v 0.250000 2.250000 0.187500
v 0.250000 2.562500 -0.125000
v -0.250000 2.250000 -0.125000
v 0.250000 2.250000 -0.125000
v -0.250000 2.562500 -0.125000
v 0.187500 2.562500 -0.187500
v -0.187500 2.250000 -0.187500
v 0.187500 2.250000 -0.187500
v -0.187500 2.562500 -0.187500
v 0.250000 1.937500 0.187500
v -0.250000 1.937500 0.187500
v -0.250000 1.625000 0.187500
v 0.250000 1.625000 0.187500
v 0.250000 1.937500 -0.125000
v -0.250000 1.625000 -0.125000
v 0.250000 1.625000 -0.125000
v -0.250000 1.937500 -0.125000
v 0.187500 1.937500 -0.187500
v -0.187500 1.625000 -0.187500
v 0.187500 1.625000 -0.187500
v -0.187500 1.937500 -0.187500
v 0.250000 1.312500 0.187500
v -0.250000 1.312500 0.187500
v -0.250000 1.000000 0.187500
v 0.250000 1.000000 0.187500
v 0.250000 1.312500 -0.125000
v -0.250000 1.000000 -0.125000
v 0.250000 1.000000 -0.125000
v -0.250000 1.312500 -0.125000
v 0.187500 1.312500 -0.187500
v -0.187500 1.000000 -0.187500
v 0.187500 1.000000 -0.187500
v -0.187500 1.312500 -0.187500
v 0.250000 0.687500 0.187500
v -0.250000 0.687500 0.187500
v -0.250000 0.375000 0.187500
v 0.250000 0.375000 0.187500
v 0.250000 0.687500 -0.125000
v -0.250000 0.375000 -0.125000
v 0.250000 0.375000 -0.125000
v -0.250000 0.687500 -0.125000
v 0.187500 0.687500 -0.187500
v -0.187500 0.375000 -0.187500
v 0.187500 0.375000 -0.187500
v -0.187500 0.687500 -0.187500
v -0.256250 1.937500 0.437500
v -0.256250 1.625000 0.437500
v -0.256250 1.937500 1.375000
v -0.256250 1.625000 1.375000
v -0.256250 1.312500 0.437500
v -0.256250 1.312500 1.375000
v -0.256250 1.000000 1.375000
v 0.256250 1.000000 1.375000
v 0.256250 1.312500 1.375000
v 0.256250 1.000000 0.437500
v 0.256250 1.312500 0.437500
v 0.256250 1.625000 1.375000
v 0.256250 1.937500 1.375000
v 0.256250 1.625000 0.437500
v 0.256250 1.937500 0.437500
v -0.250000 0.062500 0.187500
v -0.250000 0.375000 0.187500
v 0.250000 0.062500 0.187500
v 0.250000 0.375000 0.187500
v 0.250000 0.062500 1.500000
v -0.250000 0.062500 1.500000
v 0.250000 3.500000 1.500000
v -0.250000 3.500000 1.500000
v 0.250000 0.062500 0.187500
v -0.250000 0.062500 0.187500
v 0.250000 0.687500 0.187500
v -0.250000 0.687500 0.187500
v -0.250000 1.000000 0.187500
v 0.250000 1.000000 0.187500
v -0.250000 1.312500 0.187500
v -0.250000 1.625000 0.187500
v -0.250000 1.937500 0.187500
v -0.250000 2.250000 0.187500
v -0.250000 2.562500 0.187500
v -0.250000 2.875000 0.187500
v -0.250000 3.500000 0.187500
v 0.250000 1.312500 0.187500
v 0.250000 1.625000 0.187500
v 0.250000 1.937500 0.187500
v 0.250000 2.250000 0.187500
v 0.250000 2.562500 0.187500
v 0.250000 2.875000 0.187500
v 0.250000 3.500000 0.187500
v -0.250000 3.187500 0.187500
v -0.250000 3.500000 0.187500
v 0.250000 3.187500 0.187500
v 0.250000 3.500000 0.187500
vn -0.0000 -0.0000 -1.0000
vn 1.0000 -0.0000 -0.0000
vn -0.0000 -1.0000 -0.0000
vn -1.0000 -0.0000 -0.0000
vn -0.0000 1.0000 -0.0000
vn 0.7071 -0.0000 -0.7071
vn -0.7071 -0.0000 -0.7071
vt 0.890625 0.947917
vt 0.890625 0.895833
vt 0.921875 0.895833
vt 0.921875 0.947917
vt 0.885417 0.895833
vt 0.885417 0.947917
vt 0.859375 0.947917
vt 0.859375 0.895833
vt 0.953125 0.895833
vt 0.994792 0.895833
vt 0.994792 0.947917
vt 0.953125 0.947917
vt 0.927083 0.947917
vt 0.927083 0.895833
vt 0.958333 0.885417
vt 0.989583 0.885417
vt 0.890625 0.843750
vt 0.890625 0.791667
vt 0.921875 0.791667
vt 0.921875 0.843750
vt 0.885417 0.791667
vt 0.885417 0.843750
vt 0.859375 0.843750
vt 0.859375 0.791667
vt 0.953125 0.791667
vt 0.994792 0.791667
vt 0.994792 0.843750
vt 0.953125 0.843750
vt 0.927083 0.843750
vt 0.927083 0.791667
vt 0.958333 0.781250
vt 0.989583 0.781250
vt 0.890625 0.739583
vt 0.890625 0.687500
vt 0.921875 0.687500
vt 0.921875 0.739583
vt 0.885417 0.687500
vt 0.885417 0.739583
vt 0.859375 0.739583
vt 0.859375 0.687500
vt 0.953125 0.687500
vt 0.994792 0.687500
vt 0.994792 0.739583
vt 0.953125 0.739583
vt 0.927083 0.739583
vt 0.927083 0.687500
vt 0.958333 0.677083
vt 0.989583 0.677083
vt 0.890625 0.635417
vt 0.890625 0.583333
vt 0.921875 0.583333
vt 0.921875 0.635417
vt 0.885417 0.583333
vt 0.885417 0.635417
vt 0.859375 0.635417
vt 0.859375 0.583333
vt 0.953125 0.583333
vt 0.994792 0.583333
vt 0.994792 0.635417
vt 0.953125 0.635417
vt 0.927083 0.635417
vt 0.927083 0.583333
vt 0.958333 0.572917
vt 0.989583 0.572917
vt 0.890625 0.531250
vt 0.890625 0.479167
vt 0.921875 0.479167
vt 0.921875 0.531250
vt 0.885417 0.479167
vt 0.885417 0.531250
vt 0.859375 0.531250
vt 0.859375 0.479167
vt 0.953125 0.479167
vt 0.994792 0.479167
vt 0.994792 0.531250
vt 0.953125 0.531250
vt 0.927083 0.531250
vt 0.927083 0.479167
vt 0.958333 0.468750
vt 0.989583 0.468750
vt 0.661458 0.427083
vt 0.661458 0.322917
vt 0.822917 0.322917
vt 0.822917 0.427083
vt 0.661458 0.218750
vt 0.822917 0.218750
vt 0.500000 0.322917
vt 0.500000 0.218750
vt 0.500000 0.427083
vt 0.901042 0.427083
vt 0.901042 0.479167
vt 0.859375 0.427083
vt 0.859375 1.000000
vt 0.750000 1.000000
vt 0.750000 0.427083
vt 0.609375 0.427083
vt 0.609375 1.000000
vt 0.500000 1.000000
vt 0.901042 0.531250
vt 0.901042 0.583333
vt 0.901042 0.635417
vt 0.901042 0.687500
vt 0.901042 0.739583
vt 0.901042 0.791667
vt 0.901042 0.843750
vt 0.901042 0.895833
vt 0.901042 0.947917
vt 0.901042 1.000000
s 1
usemtl m_d1c9c80b-1e35-7623-e169-7dcb7bedb006
f 10/1/1 12/2/1 11/3/1
f 10/1/1 11/3/1 13/4/1
f 8/5/2 6/6/2 2/7/2
f 8/5/2 2/7/2 5/8/2
f 7/9/3 8/10/3 5/11/3
f 7/9/3 5/11/3 4/12/3
f 9/13/4 7/14/4 4/9/4
f 9/13/4 4/9/4 3/12/4
f 6/9/5 9/10/5 3/11/5
f 6/9/5 3/11/5 2/12/5
f 12/2/6 10/1/6 6/6/6
f 12/2/6 6/6/6 8/5/6
f 11/15/3 12/16/3 8/10/3
f 11/15/3 8/10/3 7/9/3
f 13/4/7 11/3/7 7/14/7
f 13/4/7 7/14/7 9/13/7
f 10/15/5 13/16/5 9/10/5
f 10/15/5 9/10/5 6/9/5
f 22/17/1 24/18/1 23/19/1
f 22/17/1 23/19/1 25/20/1
f 20/21/2 18/22/2 14/23/2
f 20/21/2 14/23/2 17/24/2
f 19/25/3 20/26/3 17/27/3
f 19/25/3 17/27/3 16/28/3
f 21/29/4 19/30/4 16/25/4
f 21/29/4 16/25/4 15/28/4
f 18/25/5 21/26/5 15/27/5
f 18/25/5 15/27/5 14/28/5
f 24/18/6 22/17/6 18/22/6
f 24/18/6 18/22/6 20/21/6
f 23/31/3 24/32/3 20/26/3
f 23/31/3 20/26/3 19/25/3
f 25/20/7 23/19/7 19/30/7
f 25/20/7 19/30/7 21/29/7
f 22/31/5 25/32/5 21/26/5
f 22/31/5 21/26/5 18/25/5
f 34/33/1 36/34/1 35/35/1
f 34/33/1 35/35/1 37/36/1
f 32/37/2 30/38/2 26/39/2
f 32/37/2 26/39/2 29/40/2
f 31/41/3 32/42/3 29/43/3
f 31/41/3 29/43/3 28/44/3
f 33/45/4 31/46/4 28/41/4
f 33/45/4 28/41/4 27/44/4
f 30/41/5 33/42/5 27/43/5
f 30/41/5 27/43/5 26/44/5
f 36/34/6 34/33/6 30/38/6
f 36/34/6 30/38/6 32/37/6
f 35/47/3 36/48/3 32/42/3
f 35/47/3 32/42/3 31/41/3
f 37/36/7 35/35/7 31/46/7
f 37/36/7 31/46/7 33/45/7
f 34/47/5 37/48/5 33/42/5
f 34/47/5 33/42/5 30/41/5
f 46/49/1 48/50/1 47/51/1
f 46/49/1 47/51/1 49/52/1
f 44/53/2 42/54/2 38/55/2
f 44/53/2 38/55/2 41/56/2
f 43/57/3 44/58/3 41/59/3
f 43/57/3 41/59/3 40/60/3
f 45/61/4 43/62/4 40/57/4
f 45/61/4 40/57/4 39/60/4
f 42/57/5 45/58/5 39/59/5
f 42/57/5 39/59/5 38/60/5
f 48/50/6 46/49/6 42/54/6
f 48/50/6 42/54/6 44/53/6
f 47/63/3 48/64/3 44/58/3
f 47/63/3 44/58/3 43/57/3
f 49/52/7 47/51/7 43/62/7
f 49/52/7 43/62/7 45/61/7
f 46/63/5 49/64/5 45/58/5
f 46/63/5 45/58/5 42/57/5
f 58/65/1 60/66/1 59/67/1
f 58/65/1 59/67/1 61/68/1
f 56/69/2 54/70/2 50/71/2
f 56/69/2 50/71/2 53/72/2
f 55/73/3 56/74/3 53/75/3
f 55/73/3 53/75/3 52/76/3
f 57/77/4 55/78/4 52/73/4
f 57/77/4 52/73/4 51/76/4
f 54/73/5 57/74/5 51/75/5
f 54/73/5 51/75/5 50/76/5
f 60/66/6 58/65/6 54/70/6
f 60/66/6 54/70/6 56/69/6
f 59/79/3 60/80/3 56/74/3
f 59/79/3 56/74/3 55/73/3
f 61/68/7 59/67/7 55/78/7
f 61/68/7 55/78/7 57/77/7
f 58/79/5 61/80/5 57/74/5
f 58/79/5 57/74/5 54/73/5
f 62/81/4 63/82/4 65/83/4
f 62/81/4 65/83/4 64/84/4
f 66/82/4 1/85/4 68/86/4
f 66/82/4 68/86/4 67/83/4
f 72/82/2 70/87/2 69/88/2
f 72/82/2 69/88/2 71/85/2
f 76/81/2 74/89/2 73/87/2
f 76/81/2 73/87/2 75/82/2
f 77/90/1 78/91/1 80/72/1
f 77/90/1 80/72/1 79/92/1
f 82/92/4 84/93/4 97/94/4
f 82/92/4 97/94/4 86/95/4
f 85/96/2 104/97/2 83/98/2
f 85/96/2 83/98/2 81/89/2
f 88/99/1 89/100/1 90/56/1
f 88/99/1 90/56/1 87/71/1
f 91/101/1 92/102/1 99/40/1
f 91/101/1 99/40/1 98/55/1
f 93/103/1 94/104/1 101/24/1
f 93/103/1 101/24/1 100/39/1
f 95/105/1 96/106/1 103/8/1
f 95/105/1 103/8/1 102/23/1
f 105/107/1 106/108/1 108/93/1
f 105/107/1 108/93/1 107/7/1
o doorRight
v -0.250000 3.500000 -0.187500
v 0.250000 3.500000 -0.187500
v 0.250000 3.187500 -0.187500
v -0.250000 3.187500 -0.187500
v -0.250000 3.500000 0.125000
v 0.250000 3.187500 0.125000
v -0.250000 3.187500 0.125000
v 0.250000 3.500000 0.125000
v -0.187500 3.500000 0.187500
v 0.187500 3.187500 0.187500
v -0.187500 3.187500 0.187500
v 0.187500 3.500000 0.187500
v -0.250000 2.875000 -0.187500
v 0.250000 2.875000 -0.187500
v 0.250000 2.562500 -0.187500
v -0.250000 2.562500 -0.187500
v -0.250000 2.875000 0.125000
v 0.250000 2.562500 0.125000
v -0.250000 2.562500 0.125000
v 0.250000 2.875000 0.125000
v -0.187500 2.875000 0.187500
v 0.187500 2.562500 0.187500
v -0.187500 2.562500 0.187500
v 0.187500 2.875000 0.187500
v -0.250000 2.250000 -0.187500
v 0.250000 2.250000 -0.187500
v 0.250000 1.937500 -0.187500
v -0.250000 1.937500 -0.187500
v -0.250000 2.250000 0.125000
v 0.250000 1.937500 0.125000
v -0.250000 1.937500 0.125000
v 0.250000 2.250000 0.125000
v -0.187500 2.250000 0.187500
v 0.187500 1.937500 0.187500
v -0.187500 1.937500 0.187500
v 0.187500 2.250000 0.187500
v -0.250000 1.625000 -0.187500
v 0.250000 1.625000 -0.187500
v 0.250000 1.312500 -0.187500
v -0.250000 1.312500 -0.187500
v -0.250000 1.625000 0.125000
v 0.250000 1.312500 0.125000
v -0.250000 1.312500 0.125000
v 0.250000 1.625000 0.125000
v -0.187500 1.625000 0.187500
v 0.187500 1.312500 0.187500
v -0.187500 1.312500 0.187500
v 0.187500 1.625000 0.187500
v -0.250000 1.000000 -0.187500
v 0.250000 1.000000 -0.187500
v 0.250000 0.687500 -0.187500
v -0.250000 0.687500 -0.187500
v -0.250000 1.000000 0.125000
v 0.250000 0.687500 0.125000
v -0.250000 0.687500 0.125000
v 0.250000 1.000000 0.125000
v -0.187500 1.000000 0.187500
v 0.187500 0.687500 0.187500
v -0.187500 0.687500 0.187500
v 0.187500 1.000000 0.187500
v -0.250000 0.375000 -0.187500
v 0.250000 0.375000 -0.187500
v 0.250000 0.062500 -0.187500
v -0.250000 0.062500 -0.187500
v -0.250000 0.375000 0.125000
v 0.250000 0.062500 0.125000
v -0.250000 0.062500 0.125000
v 0.250000 0.375000 0.125000
v -0.187500 0.375000 0.187500
v 0.187500 0.062500 0.187500
v -0.187500 0.062500 0.187500
v 0.187500 0.375000 0.187500
v 0.256250 1.000000 -0.437500
v 0.256250 1.312500 -0.437500
v 0.256250 1.000000 -1.375000
v 0.256250 1.312500 -1.375000
v 0.256250 1.625000 -0.437500
v 0.256250 1.937500 -0.437500
v 0.256250 1.625000 -1.375000
v 0.256250 1.937500 -1.375000
v -0.250000 0.062500 -1.500000
v 0.250000 0.062500 -1.500000
v -0.250000 3.500000 -1.500000
v 0.250000 3.500000 -1.500000
v -0.250000 0.062500 -0.187500
v 0.250000 0.062500 -0.187500
v -0.250000 3.500000 -0.187500
v 0.250000 3.500000 -0.187500
v -0.250000 0.375000 -0.187500
v 0.250000 0.375000 -0.187500
v 0.250000 0.687500 -0.187500
v -0.250000 0.687500 -0.187500
v 0.250000 1.000000 -0.187500
v 0.250000 1.312500 -0.187500
v 0.250000 1.625000 -0.187500
v 0.250000 1.937500 -0.187500
v 0.250000 2.250000 -0.187500
v 0.250000 2.562500 -0.187500
v 0.250000 2.875000 -0.187500
v 0.250000 3.187500 -0.187500
v -0.250000 1.000000 -0.187500
v -0.250000 1.312500 -0.187500
v -0.250000 1.625000 -0.187500
v -0.250000 1.937500 -0.187500
v -0.250000 2.250000 -0.187500
v -0.250000 2.562500 -0.187500
v -0.250000 2.875000 -0.187500
v -0.250000 3.187500 -0.187500
v -0.256250 1.937500 -1.375000
v -0.256250 1.625000 -1.375000
v -0.256250 1.937500 -0.437500
v -0.256250 1.625000 -0.437500
v -0.256250 1.312500 -1.375000
v -0.256250 1.000000 -1.375000
v -0.256250 1.312500 -0.437500
v -0.256250 1.000000 -0.437500
vn -0.0000 -0.0000 1.0000
vn -1.0000 -0.0000 -0.0000
vn -0.0000 -1.0000 -0.0000
vn 1.0000 -0.0000 -0.0000
vn -0.0000 1.0000 -0.0000
vn -0.7071 -0.0000 0.7071
vn 0.7071 -0.0000 0.7071
vt 0.640625 1.000000
vt 0.640625 0.947917
vt 0.671875 0.947917
vt 0.671875 1.000000
vt 0.635417 0.947917
vt 0.635417 1.000000
vt 0.609375 1.000000
vt 0.609375 0.947917
vt 0.703125 0.947917
vt 0.744792 0.947917
vt 0.744792 1.000000
vt 0.703125 1.000000
vt 0.677083 1.000000
vt 0.677083 0.947917
vt 0.708333 0.937500
vt 0.739583 0.937500
vt 0.640625 0.895833
vt 0.640625 0.843750
vt 0.671875 0.843750
vt 0.671875 0.895833
vt 0.635417 0.843750
vt 0.635417 0.895833
vt 0.609375 0.895833
vt 0.609375 0.843750
vt 0.703125 0.843750
vt 0.744792 0.843750
vt 0.744792 0.895833
vt 0.703125 0.895833
vt 0.677083 0.895833
vt 0.677083 0.843750
vt 0.708333 0.833333
vt 0.739583 0.833333
vt 0.640625 0.791667
vt 0.640625 0.739583
vt 0.671875 0.739583
vt 0.671875 0.791667
vt 0.635417 0.739583
vt 0.635417 0.791667
vt 0.609375 0.791667
vt 0.609375 0.739583
vt 0.703125 0.739583
vt 0.744792 0.739583
vt 0.744792 0.791667
vt 0.703125 0.791667
vt 0.677083 0.791667
vt 0.677083 0.739583
vt 0.708333 0.729167
vt 0.739583 0.729167
vt 0.640625 0.687500
vt 0.640625 0.635417
vt 0.671875 0.635417
vt 0.671875 0.687500
vt 0.635417 0.635417
vt 0.635417 0.687500
vt 0.609375 0.687500
vt 0.609375 0.635417
vt 0.703125 0.635417
vt 0.744792 0.635417
vt 0.744792 0.687500
vt 0.703125 0.687500
vt 0.677083 0.687500
vt 0.677083 0.635417
vt 0.708333 0.625000
vt 0.739583 0.625000
vt 0.640625 0.583333
vt 0.640625 0.531250
vt 0.671875 0.531250
vt 0.671875 0.583333
vt 0.635417 0.531250
vt 0.635417 0.583333
vt 0.609375 0.583333
vt 0.609375 0.531250
vt 0.703125 0.531250
vt 0.744792 0.531250
vt 0.744792 0.583333
vt 0.703125 0.583333
vt 0.677083 0.583333
vt 0.677083 0.531250
vt 0.708333 0.520833
vt 0.739583 0.520833
vt 0.640625 0.479167
vt 0.640625 0.427083
vt 0.671875 0.427083
vt 0.671875 0.479167
vt 0.635417 0.427083
vt 0.635417 0.479167
vt 0.609375 0.479167
vt 0.609375 0.427083
vt 0.703125 0.427083
vt 0.744792 0.427083
vt 0.744792 0.479167
vt 0.703125 0.479167
vt 0.677083 0.479167
vt 0.677083 0.427083
vt 0.708333 0.416667
vt 0.739583 0.416667
vt 0.822917 0.322917
vt 0.661458 0.322917
vt 0.661458 0.218750
vt 0.822917 0.218750
vt 0.822917 0.427083
vt 0.661458 0.427083
vt 0.859375 0.427083
vt 0.859375 1.000000
vt 0.750000 1.000000
vt 0.750000 0.427083
vt 0.500000 1.000000
vt 0.500000 0.427083
vt 0.651042 0.479167
vt 0.651042 0.531250
vt 0.651042 0.583333
vt 0.651042 0.635417
vt 0.651042 0.687500
vt 0.651042 0.739583
vt 0.651042 0.791667
vt 0.651042 0.843750
vt 0.651042 0.895833
vt 0.651042 0.947917
vt 0.500000 0.322917
vt 0.500000 0.218750
s 1
usemtl m_d1c9c80b-1e35-7623-e169-7dcb7bedb006
f 117/109/8 119/110/8 118/111/8
f 117/109/8 118/111/8 120/112/8
f 115/113/9 113/114/9 109/115/9
f 115/113/9 109/115/9 112/116/9
f 114/117/10 115/118/10 112/119/10
f 114/117/10 112/119/10 111/120/10
f 116/121/11 114/122/11 111/117/11
f 116/121/11 111/117/11 110/120/11
f 113/117/12 116/118/12 110/119/12
f 113/117/12 110/119/12 109/120/12
f 119/110/13 117/109/13 113/114/13
f 119/110/13 113/114/13 115/113/13
f 118/123/10 119/124/10 115/118/10
f 118/123/10 115/118/10 114/117/10
f 120/112/14 118/111/14 114/122/14
f 120/112/14 114/122/14 116/121/14
f 117/123/12 120/124/12 116/118/12
f 117/123/12 116/118/12 113/117/12
f 129/125/8 131/126/8 130/127/8
f 129/125/8 130/127/8 132/128/8
f 127/129/9 125/130/9 121/131/9
f 127/129/9 121/131/9 124/132/9
f 126/133/10 127/134/10 124/135/10
f 126/133/10 124/135/10 123/136/10
f 128/137/11 126/138/11 123/133/11
f 128/137/11 123/133/11 122/136/11
f 125/133/12 128/134/12 122/135/12
f 125/133/12 122/135/12 121/136/12
f 131/126/13 129/125/13 125/130/13
f 131/126/13 125/130/13 127/129/13
f 130/139/10 131/140/10 127/134/10
f 130/139/10 127/134/10 126/133/10
f 132/128/14 130/127/14 126/138/14
f 132/128/14 126/138/14 128/137/14
f 129/139/12 132/140/12 128/134/12
f 129/139/12 128/134/12 125/133/12
f 141/141/8 143/142/8 142/143/8
f 141/141/8 142/143/8 144/144/8
f 139/145/9 137/146/9 133/147/9
f 139/145/9 133/147/9 136/148/9
f 138/149/10 139/150/10 136/151/10
f 138/149/10 136/151/10 135/152/10
f 140/153/11 138/154/11 135/149/11
f 140/153/11 135/149/11 134/152/11
f 137/149/12 140/150/12 134/151/12
f 137/149/12 134/151/12 133/152/12
f 143/142/13 141/141/13 137/146/13
f 143/142/13 137/146/13 139/145/13
f 142/155/10 143/156/10 139/150/10
f 142/155/10 139/150/10 138/149/10
f 144/144/14 142/143/14 138/154/14
f 144/144/14 138/154/14 140/153/14
f 141/155/12 144/156/12 140/150/12
f 141/155/12 140/150/12 137/149/12
f 153/157/8 155/158/8 154/159/8
f 153/157/8 154/159/8 156/160/8
f 151/161/9 149/162/9 145/163/9
f 151/161/9 145/163/9 148/164/9
f 150/165/10 151/166/10 148/167/10
f 150/165/10 148/167/10 147/168/10
f 152/169/11 150/170/11 147/165/11
f 152/169/11 147/165/11 146/168/11
f 149/165/12 152/166/12 146/167/12
f 149/165/12 146/167/12 145/168/12
f 155/158/13 153/157/13 149/162/13
f 155/158/13 149/162/13 151/161/13
f 154/171/10 155/172/10 151/166/10
f 154/171/10 151/166/10 150/165/10
f 156/160/14 154/159/14 150/170/14
f 156/160/14 150/170/14 152/169/14
f 153/171/12 156/172/12 152/166/12
f 153/171/12 152/166/12 149/165/12
f 165/173/8 167/174/8 166/175/8
f 165/173/8 166/175/8 168/176/8
f 163/177/9 161/178/9 157/179/9
f 163/177/9 157/179/9 160/180/9
f 162/181/10 163/182/10 160/183/10
f 162/181/10 160/183/10 159/184/10
f 164/185/11 162/186/11 159/181/11
f 164/185/11 159/181/11 158/184/11
f 161/181/12 164/182/12 158/183/12
f 161/181/12 158/183/12 157/184/12
f 167/174/13 165/173/13 161/178/13
f 167/174/13 161/178/13 163/177/13
f 166/187/10 167/188/10 163/182/10
f 166/187/10 163/182/10 162/181/10
f 168/176/14 166/175/14 162/186/14
f 168/176/14 162/186/14 164/185/14
f 165/187/12 168/188/12 164/182/12
f 165/187/12 164/182/12 161/181/12
f 177/189/8 179/190/8 178/191/8
f 177/189/8 178/191/8 180/192/8
f 175/193/9 173/194/9 169/195/9
f 175/193/9 169/195/9 172/196/9
f 174/197/10 175/198/10 172/199/10
f 174/197/10 172/199/10 171/200/10
f 176/201/11 174/202/11 171/197/11
f 176/201/11 171/197/11 170/200/11
f 173/197/12 176/198/12 170/199/12
f 173/197/12 170/199/12 169/200/12
f 179/190/13 177/189/13 173/194/13
f 179/190/13 173/194/13 175/193/13
f 178/203/10 179/204/10 175/198/10
f 178/203/10 175/198/10 174/197/10
f 180/192/14 178/191/14 174/202/14
f 180/192/14 174/202/14 176/201/14
f 177/203/12 180/204/12 176/198/12
f 177/203/12 176/198/12 173/197/12
f 184/205/11 182/206/11 181/207/11
f 184/205/11 181/207/11 183/208/11
f 188/209/11 186/210/11 185/206/11
f 188/209/11 185/206/11 187/205/11
f 190/211/11 192/212/11 196/213/11
f 190/211/11 196/213/11 194/214/11
f 193/196/9 195/115/9 191/215/9
f 193/196/9 191/215/9 189/216/9
f 198/217/8 199/218/8 200/180/8
f 198/217/8 200/180/8 197/195/8
f 201/219/8 202/220/8 210/164/8
f 201/219/8 210/164/8 209/179/8
f 203/221/8 204/222/8 212/148/8
f 203/221/8 212/148/8 211/163/8
f 205/223/8 206/224/8 214/132/8
f 205/223/8 214/132/8 213/147/8
f 207/225/8 208/226/8 216/116/8
f 207/225/8 216/116/8 215/131/8
f 217/216/9 218/227/9 220/206/9
f 217/216/9 220/206/9 219/210/9
f 221/227/9 222/228/9 224/207/9
f 221/227/9 224/207/9 223/206/9
o frame
v -0.500000 2.500000 2.000000
v 0.500000 2.500000 2.000000
v -0.500000 2.500000 1.500000
v 0.500000 2.500000 1.500000
v -0.500000 3.500000 2.000000
v 0.500000 3.500000 2.000000
v -0.500000 4.000000 2.000000
v 0.500000 4.000000 2.000000
v 0.500000 2.500000 -2.000000
v -0.500000 2.500000 -2.000000
v 0.500000 2.500000 -1.500000
v -0.500000 2.500000 -1.500000
v 0.500000 0.062500 -1.500000
v -0.500000 0.062500 -1.500000
v 0.500000 3.500000 -2.000000
v -0.500000 3.500000 -2.000000
v 0.500000 3.500000 -0.500000
v -0.500000 3.500000 -0.500000
v 0.500000 4.000000 -2.000000
v -0.500000 4.000000 -2.000000
v -0.500000 3.500000 0.500000
v 0.500000 3.500000 0.500000
v -0.500000 0.000000 2.000000
v 0.500000 0.000000 2.000000
v 0.500000 -0.000000 -2.000000
v 0.500000 -0.000000 -1.500000
v -0.500000 -0.000000 -2.000000
v -0.500000 -0.000000 -1.500000
v -0.500000 0.000000 1.500000
v 0.500000 0.000000 1.500000
v 0.500000 0.062500 1.500000
v -0.500000 0.062500 1.500000
v -0.500000 3.125000 -1.125000
v 0.500000 3.125000 -1.125000
v 0.500000 3.125000 -2.000000
v -0.500000 3.125000 -2.000000
v 0.500000 3.125000 1.125000
v -0.500000 3.125000 1.125000
v -0.500000 3.125000 2.000000
v 0.500000 3.125000 2.000000
v 0.500000 0.062500 -1.125000
v 0.500000 0.687500 -1.500000
v -0.500000 0.687500 -1.500000
v -0.500000 0.062500 -1.125000
v -0.500000 0.062500 1.125000
v -0.500000 0.687500 1.500000
v 0.500000 0.687500 1.500000
v 0.500000 0.062500 1.125000
vn -0.0000 -0.0000 -1.0000
vn -1.0000 -0.0000 -0.0000
vn 1.0000 -0.0000 -0.0000
vn -0.0000 -0.5145 -0.8575
vn -0.0000 -0.0000 1.0000
vn -0.0000 -0.5145 0.8575
vn -0.0000 1.0000 -0.0000
vn -0.0000 -1.0000 -0.0000
vn -0.0000 -0.8575 0.5145
vn -0.0000 -0.8575 -0.5145
vn -0.0000 0.5145 0.8575
vn -0.0000 0.5145 -0.8575
vt 0.416667 0.583333
vt 0.416667 0.281250
vt 0.500000 0.281250
vt 0.500000 0.583333
vt 0.416667 0.687500
vt 0.343750 0.687500
vt 0.375000 0.583333
vt 0.125000 0.583333
vt 0.156250 0.687500
vt 0.083333 0.687500
vt 0.083333 0.583333
vt 0.500000 0.687500
vt 0.416667 0.833333
vt 0.416667 1.000000
vt 0.083333 1.000000
vt 0.083333 0.833333
vt 0.291667 0.583333
vt 0.291667 0.750000
vt 0.208333 0.750000
vt 0.208333 0.583333
vt 0.083333 0.750000
vt 0.416667 0.750000
vt 0.375000 0.166667
vt 0.416667 0.166667
vt 0.083333 0.166667
vt 0.125000 0.166667
vt 0.083333 0.000000
vt 0.416667 0.000000
vt 0.125000 0.177083
vt 0.375000 0.177083
vt 0.500000 0.750000
vt 0.000000 0.833333
vt 0.000000 0.166667
vt 0.500000 0.177083
vt 0.416667 0.177083
vt 0.375000 0.447917
vt 0.343750 0.343750
vt 0.375000 0.343750
vt 0.156250 0.343750
vt 0.125000 0.447917
vt 0.125000 0.343750
s 1
usemtl m_d1c9c80b-1e35-7623-e169-7dcb7bedb006
f 228/229/15 271/230/15 270/231/15
f 228/229/15 270/231/15 227/232/15
f 225/229/16 263/233/16 262/234/16
f 225/229/16 262/234/16 227/235/16
f 228/236/17 261/237/17 264/238/17
f 228/236/17 264/238/17 226/239/17
f 227/232/18 262/240/18 261/233/18
f 227/232/18 261/233/18 228/229/18
f 236/229/19 267/230/19 266/231/19
f 236/229/19 266/231/19 235/232/19
f 233/229/17 259/233/17 258/234/17
f 233/229/17 258/234/17 235/235/17
f 236/236/16 257/237/16 260/238/16
f 236/236/16 260/238/16 234/239/16
f 235/232/20 258/240/20 257/233/20
f 235/232/20 257/233/20 236/229/20
f 231/241/21 232/242/21 243/243/21
f 231/241/21 243/243/21 244/244/21
f 246/245/22 245/246/22 242/247/22
f 246/245/22 242/247/22 241/248/22
f 243/241/17 232/244/17 230/249/17
f 243/241/17 230/249/17 239/250/17
f 231/241/16 244/244/16 240/249/16
f 231/241/16 240/249/16 229/250/16
f 253/251/16 247/252/16 225/229/16
f 253/251/16 225/229/16 227/235/16
f 226/239/17 248/253/17 254/254/17
f 226/239/17 254/254/17 228/236/17
f 250/251/17 249/252/17 233/229/17
f 250/251/17 233/229/17 235/235/17
f 234/239/16 251/253/16 252/254/16
f 234/239/16 252/254/16 236/236/16
f 247/252/22 251/253/22 249/255/22
f 247/252/22 249/255/22 248/256/22
f 255/257/17 254/254/17 250/251/17
f 255/257/17 250/251/17 237/258/17
f 253/251/16 256/258/16 238/257/16
f 253/251/16 238/257/16 252/254/16
f 242/250/23 257/233/23 258/240/23
f 242/250/23 258/240/23 241/259/23
f 241/246/17 258/234/17 259/233/17
f 241/246/17 259/233/17 239/250/17
f 240/249/16 260/238/16 257/237/16
f 240/249/16 257/237/16 242/247/16
f 246/250/24 261/233/24 262/240/24
f 246/250/24 262/240/24 245/259/24
f 245/246/16 262/234/16 263/233/16
f 245/246/16 263/233/16 229/250/16
f 232/244/19 231/260/19 247/261/19
f 232/244/19 247/261/19 248/253/19
f 230/249/17 264/238/17 261/237/17
f 230/249/17 261/237/17 246/247/17
f 244/244/15 243/260/15 249/261/15
f 244/244/15 249/261/15 251/253/15
f 265/262/25 266/231/25 267/230/25
f 265/262/25 267/230/25 268/263/25
f 269/262/26 270/231/26 271/230/26
f 269/262/26 271/230/26 272/263/26
f 266/264/17 265/265/17 237/266/17
f 268/267/16 267/268/16 238/269/16
f 270/264/16 269/265/16 256/266/16
f 272/267/17 271/268/17 255/269/17
f 256/258/21 255/266/21 237/269/21
f 256/258/21 237/269/21 238/257/21
