# Blender 4.2.7 LTS
# www.blender.org
mtllib sliding_seal_door.mtl
o door
v 0.125000 2.000000 -0.500000
v 0.125000 0.000000 0.500000
v 0.125000 2.000000 0.500000
v -0.125000 0.000000 0.500000
v -0.125000 -0.000000 -0.500000
v -0.125000 2.000000 -0.500000
v -0.125000 2.000000 0.500000
v 0.125000 0.000000 -0.500000
vn 1.0000 -0.0000 -0.0000
vn -1.0000 -0.0000 -0.0000
vn -0.0000 -0.0000 -1.0000
vn -0.0000 1.0000 -0.0000
vn -0.0000 -1.0000 -0.0000
vn -0.0000 -0.0000 1.0000
vt 0.083333 -0.000000
vt 0.416667 0.666667
vt 0.416667 -0.000000
vt 0.750000 0.666667
vt 0.750000 -0.000000
vt 0.000000 0.666667
vt 0.000000 -0.000000
vt 0.750000 0.750000
vt 0.416667 0.750000
vt 0.083333 0.750000
vt 0.083333 0.666667
vt 0.833333 0.666667
vt 0.833333 0.000000
s 0
usemtl Material.003
f 8/1/1 3/2/1 2/3/1
f 4/3/2 6/4/2 5/5/2
f 6/6/3 8/1/3 5/7/3
f 6/2/4 3/8/4 1/9/4
f 5/2/5 2/10/5 4/11/5
f 7/12/6 2/5/6 3/4/6
f 8/1/1 1/11/1 3/2/1
f 4/3/2 7/2/2 6/4/2
f 6/6/3 1/11/3 8/1/3
f 6/2/4 7/4/4 3/8/4
f 5/2/5 8/9/5 2/10/5
f 7/12/6 4/13/6 2/5/6
o frame
v 0.125000 2.000000 0.497996
v -0.125000 2.000000 0.497996
v -0.125000 -0.000000 0.497996
v 0.125000 -0.000000 0.497996
v -0.125000 2.000000 0.497996
v 0.125000 2.000000 0.497996
v 0.125000 -0.000000 0.497996
v -0.125000 -0.000000 0.497996
vn -0.0000 -0.0000 -1.0000
vn -0.0000 -0.0000 1.0000
vt 0.083333 0.666667
vt 0.000000 0.000000
vt 0.000000 0.666667
vt 0.833333 0.666667
vt 0.750000 0.000000
vt 0.750000 0.666667
vt 0.083333 0.000000
vt 0.833333 0.000000
s 0
usemtl Material.003
f 9/14/7 11/15/7 10/16/7
f 13/17/8 15/18/8 14/19/8
f 9/14/7 12/20/7 11/15/7
f 13/17/8 16/21/8 15/18/8
