# Blender 4.3.2
# www.blender.org
mtllib water_door.mtl
o bolt
v 0.187500 0.625000 -0.312500
v 0.187500 0.625000 -1.500000
v 0.187500 0.500000 -0.312500
v 0.187500 0.500000 -1.500000
v 0.125000 0.625000 -0.312500
v 0.125000 0.625000 -1.500000
v 0.125000 0.500000 -0.312500
v 0.125000 0.500000 -1.500000
v 0.187500 2.500000 -0.312500
v 0.187500 2.500000 -1.500000
v 0.187500 2.375000 -0.312500
v 0.187500 2.375000 -1.500000
v 0.125000 2.500000 -0.312500
v 0.125000 2.500000 -1.500000
v 0.125000 2.375000 -0.312500
v 0.125000 2.375000 -1.500000
vn 1.0000 -0.0000 -0.0000
vn -0.0000 1.0000 -0.0000
vn -0.0000 -1.0000 -0.0000
vn -0.0000 -0.0000 1.0000
vn -0.0000 -0.0000 -1.0000
vt 0.388889 0.859375
vt 0.256944 0.859375
vt 0.256944 0.828125
vt 0.388889 0.828125
vt 0.256944 0.875000
vt 0.388889 0.875000
vt 0.256944 0.812500
vt 0.388889 0.812500
vt 0.250000 0.859375
vt 0.250000 0.828125
vt 0.395833 0.859375
vt 0.395833 0.828125
s 1
usemtl m_8102c846-4c57-3976-ee6d-eb0527a5b728
f 2/1/1 1/2/1 3/3/1
f 2/1/1 3/3/1 4/4/1
f 5/5/2 1/2/2 2/1/2
f 5/5/2 2/1/2 6/6/2
f 4/4/3 3/3/3 7/7/3
f 4/4/3 7/7/3 8/8/3
f 3/3/4 1/2/4 5/9/4
f 3/3/4 5/9/4 7/10/4
f 6/11/5 2/1/5 4/4/5
f 6/11/5 4/4/5 8/12/5
f 10/1/1 9/2/1 11/3/1
f 10/1/1 11/3/1 12/4/1
f 13/5/2 9/2/2 10/1/2
f 13/5/2 10/1/2 14/6/2
f 12/4/3 11/3/3 15/7/3
f 12/4/3 15/7/3 16/8/3
f 11/3/4 9/2/4 13/9/4
f 11/3/4 13/9/4 15/10/4
f 14/11/5 10/1/5 12/4/5
f 14/11/5 12/4/5 16/12/5
o door
v 0.125000 2.500000 1.250000
v 0.125000 2.500000 -1.250000
v 0.125000 0.500000 1.250000
v 0.125000 0.500000 -1.250000
v -0.125000 2.500000 1.250000
v -0.125000 2.500000 -1.250000
v -0.125000 0.500000 1.250000
v -0.125000 0.500000 -1.250000
v 0.125000 2.750000 1.000000
v 0.125000 2.750000 -1.000000
v -0.125000 2.750000 1.000000
v -0.125000 2.750000 -1.000000
v 0.125000 0.250000 1.000000
v -0.125000 0.250000 1.000000
v 0.125000 0.250000 -1.000000
v -0.125000 0.250000 -1.000000
v 0.250000 2.562500 -0.400000
v 0.250000 2.562500 -0.775000
v 0.250000 2.312500 -0.400000
v 0.250000 2.312500 -0.775000
v 0.125000 2.562500 -0.400000
v 0.125000 2.562500 -0.775000
v 0.125000 2.312500 -0.400000
v 0.125000 2.312500 -0.775000
v 0.250000 2.250000 -0.462500
v 0.125000 2.250000 -0.462500
v 0.250000 2.250000 -0.712500
v 0.125000 2.250000 -0.712500
v 0.250000 2.625000 -0.462500
v 0.250000 2.625000 -0.712500
v 0.125000 2.625000 -0.462500
v 0.125000 2.625000 -0.712500
v 0.250000 0.687500 -0.400000
v 0.250000 0.687500 -0.775000
v 0.250000 0.437500 -0.400000
v 0.250000 0.437500 -0.775000
v 0.125000 0.687500 -0.400000
v 0.125000 0.687500 -0.775000
v 0.125000 0.437500 -0.400000
v 0.125000 0.437500 -0.775000
v 0.250000 0.375000 -0.462500
v 0.125000 0.375000 -0.462500
v 0.250000 0.375000 -0.712500
v 0.125000 0.375000 -0.712500
v 0.250000 0.750000 -0.462500
v 0.250000 0.750000 -0.712500
v 0.125000 0.750000 -0.462500
v 0.125000 0.750000 -0.712500
v -0.250000 2.562500 -0.775000
v -0.250000 2.562500 -0.400000
v -0.250000 2.312500 -0.775000
v -0.250000 2.312500 -0.400000
v -0.125000 2.562500 -0.775000
v -0.125000 2.562500 -0.400000
v -0.125000 2.312500 -0.775000
v -0.125000 2.312500 -0.400000
v -0.250000 2.250000 -0.712500
v -0.125000 2.250000 -0.712500
v -0.250000 2.250000 -0.462500
v -0.125000 2.250000 -0.462500
v -0.250000 2.625000 -0.712500
v -0.250000 2.625000 -0.462500
v -0.125000 2.625000 -0.712500
v -0.125000 2.625000 -0.462500
v -0.250000 0.687500 -0.775000
v -0.250000 0.687500 -0.400000
v -0.250000 0.437500 -0.775000
v -0.250000 0.437500 -0.400000
v -0.125000 0.687500 -0.775000
v -0.125000 0.687500 -0.400000
v -0.125000 0.437500 -0.775000
v -0.125000 0.437500 -0.400000
v -0.250000 0.375000 -0.712500
v -0.125000 0.375000 -0.712500
v -0.250000 0.375000 -0.462500
v -0.125000 0.375000 -0.462500
v -0.250000 0.750000 -0.712500
v -0.250000 0.750000 -0.462500
v -0.125000 0.750000 -0.712500
v -0.125000 0.750000 -0.462500
vn 1.0000 -0.0000 -0.0000
vn -1.0000 -0.0000 -0.0000
vn -0.0000 1.0000 -0.0000
vn -0.0000 -1.0000 -0.0000
vn -0.0000 -0.0000 1.0000
vn -0.0000 -0.0000 -1.0000
vn -0.0000 0.7071 0.7071
vn -0.0000 0.7071 -0.7071
vn -0.0000 -0.7071 0.7071
vn -0.0000 -0.7071 -0.7071
vt 0.666667 0.625000
vt 0.388889 0.625000
vt 0.388889 0.125000
vt 0.666667 0.125000
vt 0.972222 0.125000
vt 0.972222 0.625000
vt 0.694444 0.625000
vt 0.694444 0.125000
vt 0.416667 0.750000
vt 0.416667 0.687500
vt 0.638889 0.687500
vt 0.638889 0.750000
vt 0.416667 0.000000
vt 0.638889 0.000000
vt 0.638889 0.062500
vt 0.416667 0.062500
vt 0.361111 0.625000
vt 0.361111 0.125000
vt 0.402778 0.718750
vt 0.375000 0.718750
vt 0.375000 0.656250
vt 0.402778 0.656250
vt 0.680556 0.718750
vt 0.652778 0.718750
vt 0.652778 0.656250
vt 0.680556 0.656250
vt 0.944444 0.687500
vt 0.722222 0.687500
vt 0.375000 0.031250
vt 0.402778 0.031250
vt 0.402778 0.093750
vt 0.375000 0.093750
vt 0.722222 0.062500
vt 0.944444 0.062500
vt 0.652778 0.031250
vt 0.680556 0.031250
vt 0.680556 0.093750
vt 0.652778 0.093750
vt 0.111111 0.906250
vt 0.069444 0.906250
vt 0.069444 0.843750
vt 0.111111 0.843750
vt 0.076389 0.937500
vt 0.076389 0.906250
vt 0.104167 0.906250
vt 0.104167 0.937500
vt 0.104167 0.843750
vt 0.076389 0.843750
vt 0.076389 0.812500
vt 0.104167 0.812500
vt 0.062500 0.906250
vt 0.062500 0.843750
vt 0.118056 0.906250
vt 0.118056 0.843750
vt 0.076389 0.828125
vt 0.104167 0.828125
vt 0.062500 0.828125
vt 0.118056 0.828125
vt 0.076389 0.921875
vt 0.062500 0.921875
vt 0.104167 0.921875
vt 0.118056 0.921875
vt 0.166667 0.906250
vt 0.125000 0.906250
vt 0.125000 0.843750
vt 0.166667 0.843750
vt 0.131944 0.937500
vt 0.131944 0.906250
vt 0.159722 0.906250
vt 0.159722 0.937500
vt 0.159722 0.843750
vt 0.131944 0.843750
vt 0.131944 0.812500
vt 0.159722 0.812500
vt 0.173611 0.906250
vt 0.173611 0.843750
vt 0.131944 0.828125
vt 0.159722 0.828125
vt 0.173611 0.828125
vt 0.131944 0.921875
vt 0.159722 0.921875
vt 0.173611 0.921875
s 1
usemtl m_8102c846-4c57-3976-ee6d-eb0527a5b728
f 18/13/6 17/14/6 19/15/6
f 18/13/6 19/15/6 20/16/6
f 23/17/7 21/18/7 22/19/7
f 23/17/7 22/19/7 24/20/7
f 27/21/8 25/22/8 26/23/8
f 27/21/8 26/23/8 28/24/8
f 31/25/9 29/26/9 30/27/9
f 31/25/9 30/27/9 32/28/9
f 19/15/10 17/14/10 21/29/10
f 19/15/10 21/29/10 23/30/10
f 22/19/11 18/13/11 20/16/11
f 22/19/11 20/16/11 24/20/11
f 25/31/12 27/32/12 21/33/12
f 25/31/12 21/33/12 17/34/12
f 26/23/6 25/22/6 17/14/6
f 26/23/6 17/14/6 18/13/6
f 28/35/13 26/36/13 18/37/13
f 28/35/13 18/37/13 22/38/13
f 27/39/7 28/40/7 22/19/7
f 27/39/7 22/19/7 21/18/7
f 29/28/6 31/27/6 20/16/6
f 29/28/6 20/16/6 19/15/6
f 30/41/14 29/42/14 19/43/14
f 30/41/14 19/43/14 23/44/14
f 32/45/7 30/46/7 23/17/7
f 32/45/7 23/17/7 24/20/7
f 31/47/15 32/48/15 24/49/15
f 31/47/15 24/49/15 20/50/15
f 34/51/6 33/52/6 35/53/6
f 34/51/6 35/53/6 36/54/6
f 47/55/8 45/56/8 46/57/8
f 47/55/8 46/57/8 48/58/8
f 43/59/9 41/60/9 42/61/9
f 43/59/9 42/61/9 44/62/9
f 35/60/10 33/56/10 37/63/10
f 35/60/10 37/63/10 39/64/10
f 38/65/11 34/57/11 36/59/11
f 38/65/11 36/59/11 40/66/11
f 41/67/6 43/68/6 36/54/6
f 41/67/6 36/54/6 35/53/6
f 42/69/14 41/67/14 35/60/14
f 42/69/14 35/60/14 39/64/14
f 43/68/15 44/70/15 40/66/15
f 43/68/15 40/66/15 36/59/15
f 45/71/12 47/72/12 37/63/12
f 45/71/12 37/63/12 33/56/12
f 46/73/6 45/71/6 33/52/6
f 46/73/6 33/52/6 34/51/6
f 48/74/13 46/73/13 34/57/13
f 48/74/13 34/57/13 38/65/13
f 50/51/6 49/52/6 51/53/6
f 50/51/6 51/53/6 52/54/6
f 63/55/8 61/56/8 62/57/8
f 63/55/8 62/57/8 64/58/8
f 59/59/9 57/60/9 58/61/9
f 59/59/9 58/61/9 60/62/9
f 51/60/10 49/56/10 53/63/10
f 51/60/10 53/63/10 55/64/10
f 54/65/11 50/57/11 52/59/11
f 54/65/11 52/59/11 56/66/11
f 57/67/6 59/68/6 52/54/6
f 57/67/6 52/54/6 51/53/6
f 58/69/14 57/67/14 51/60/14
f 58/69/14 51/60/14 55/64/14
f 59/68/15 60/70/15 56/66/15
f 59/68/15 56/66/15 52/59/15
f 61/71/12 63/72/12 53/63/12
f 61/71/12 53/63/12 49/56/12
f 62/73/6 61/71/6 49/52/6
f 62/73/6 49/52/6 50/51/6
f 64/74/13 62/73/13 50/57/13
f 64/74/13 50/57/13 54/65/13
f 66/75/7 65/76/7 67/77/7
f 66/75/7 67/77/7 68/78/7
f 79/79/8 77/80/8 78/81/8
f 79/79/8 78/81/8 80/82/8
f 75/83/9 73/84/9 74/85/9
f 75/83/9 74/85/9 76/86/9
f 67/84/11 65/80/11 69/65/11
f 67/84/11 69/65/11 71/66/11
f 70/87/10 66/81/10 68/83/10
f 70/87/10 68/83/10 72/88/10
f 73/89/7 75/90/7 68/78/7
f 73/89/7 68/78/7 67/77/7
f 74/70/15 73/89/15 67/84/15
f 74/70/15 67/84/15 71/66/15
f 75/90/14 76/91/14 72/88/14
f 75/90/14 72/88/14 68/83/14
f 77/92/13 79/74/13 69/65/13
f 77/92/13 69/65/13 65/80/13
f 78/93/7 77/92/7 65/76/7
f 78/93/7 65/76/7 66/75/7
f 80/94/12 78/93/12 66/81/12
f 80/94/12 66/81/12 70/87/12
f 82/75/7 81/76/7 83/77/7
f 82/75/7 83/77/7 84/78/7
f 95/79/8 93/80/8 94/81/8
f 95/79/8 94/81/8 96/82/8
f 91/83/9 89/84/9 90/85/9
f 91/83/9 90/85/9 92/86/9
f 83/84/11 81/80/11 85/65/11
f 83/84/11 85/65/11 87/66/11
f 86/87/10 82/81/10 84/83/10
f 86/87/10 84/83/10 88/88/10
f 89/89/7 91/90/7 84/78/7
f 89/89/7 84/78/7 83/77/7
f 90/70/15 89/89/15 83/84/15
f 90/70/15 83/84/15 87/66/15
f 91/90/14 92/91/14 88/88/14
f 91/90/14 88/88/14 84/83/14
f 93/92/13 95/74/13 85/65/13
f 93/92/13 85/65/13 81/80/13
f 94/93/7 93/92/7 81/76/7
f 94/93/7 81/76/7 82/75/7
f 96/94/12 94/93/12 82/81/12
f 96/94/12 82/81/12 86/87/12
o frame
v 0.125000 0.250000 1.500000
v 0.125000 0.250000 -1.500000
v 0.125000 0.000000 1.500000
v 0.125000 -0.000000 -1.500000
v -0.125000 0.250000 1.500000
v -0.125000 0.250000 -1.500000
v -0.125000 0.000000 1.500000
v -0.125000 -0.000000 -1.500000
v 0.125000 0.250000 1.000000
v -0.125000 0.250000 1.000000
v 0.125000 0.250000 -1.000000
v -0.125000 0.250000 -1.000000
v 0.125000 0.500000 1.500000
v -0.125000 0.500000 1.250000
v 0.125000 0.500000 1.250000
v -0.125000 0.500000 1.500000
v -0.125000 0.500000 -1.500000
v -0.125000 0.500000 -1.250000
v 0.125000 0.500000 -1.250000
v 0.125000 0.500000 -1.500000
v -0.125000 2.500000 -1.500000
v -0.125000 2.500000 -1.250000
v 0.125000 2.500000 -1.250000
v 0.125000 2.500000 -1.500000
v 0.125000 2.500000 1.500000
v -0.125000 2.500000 1.250000
v 0.125000 2.500000 1.250000
v -0.125000 2.500000 1.500000
v 0.125000 2.750000 1.500000
v -0.125000 2.750000 1.000000
v 0.125000 2.750000 1.000000
v -0.125000 2.750000 1.500000
v -0.125000 2.750000 -1.500000
v 0.125000 2.750000 -1.500000
v 0.125000 3.000000 1.500000
v -0.125000 3.000000 1.500000
v -0.125000 3.000000 -1.500000
v 0.125000 3.000000 -1.500000
v 0.125000 2.750000 -1.000000
v -0.125000 2.750000 -1.000000
v 0.250000 2.562500 -1.375000
v 0.250000 2.562500 -1.437500
v 0.250000 2.312500 -1.375000
v 0.250000 2.312500 -1.437500
v 0.125000 2.562500 -1.375000
v 0.125000 2.562500 -1.437500
v 0.125000 2.312500 -1.375000
v 0.125000 2.312500 -1.437500
v 0.250000 0.687500 -1.375000
v 0.250000 0.687500 -1.437500
v 0.250000 0.437500 -1.375000
v 0.250000 0.437500 -1.437500
v 0.125000 0.687500 -1.375000
v 0.125000 0.687500 -1.437500
v 0.125000 0.437500 -1.375000
v 0.125000 0.437500 -1.437500
vn -0.0000 1.0000 -0.0000
vn 1.0000 -0.0000 -0.0000
vn -0.0000 -1.0000 -0.0000
vn -1.0000 -0.0000 -0.0000
vn -0.0000 0.7071 -0.7071
vn -0.0000 0.7071 0.7071
vn -0.0000 -0.0000 1.0000
vn -0.0000 -0.0000 -1.0000
vn -0.0000 -0.7071 -0.7071
vn -0.0000 -0.7071 0.7071
vt 0.083333 0.062500
vt 0.305556 0.062500
vt 0.305556 0.125000
vt 0.083333 0.125000
vt 0.027778 0.000000
vt 0.361111 0.000000
vt 0.361111 0.062500
vt 0.027778 0.062500
vt 0.361111 0.812500
vt 0.027778 0.812500
vt 0.027778 0.750000
vt 0.361111 0.750000
vt 0.055556 0.125000
vt 0.027778 0.125000
vt 0.111111 0.187500
vt 0.083333 0.187500
vt 0.111111 0.125000
vt 0.361111 0.125000
vt 0.333333 0.125000
vt 0.305556 0.187500
vt 0.277778 0.187500
vt 0.277778 0.125000
vt 0.055556 0.625000
vt 0.027778 0.625000
vt 0.333333 0.625000
vt 0.305556 0.625000
vt 0.361111 0.625000
vt 0.083333 0.625000
vt 0.083333 0.687500
vt 0.027778 0.687500
vt 0.111111 0.625000
vt 0.083333 0.562500
vt 0.111111 0.562500
vt 0.361111 0.687500
vt 0.305556 0.687500
vt 0.277778 0.625000
vt 0.277778 0.562500
vt 0.305556 0.562500
vt 0.000000 0.750000
vt 0.000000 0.000000
vt 0.048611 0.890625
vt 0.041667 0.890625
vt 0.041667 0.828125
vt 0.048611 0.828125
vt 0.027778 0.890625
vt 0.041667 0.906250
vt 0.027778 0.906250
vt 0.041667 0.812500
vt 0.027778 0.828125
vt 0.062500 0.890625
vt 0.062500 0.828125
s 1
usemtl m_8102c846-4c57-3976-ee6d-eb0527a5b728
f 105/95/16 107/96/16 108/97/16
f 105/95/16 108/97/16 106/98/16
f 99/99/17 100/100/17 98/101/17
f 99/99/17 98/101/17 97/102/17
f 103/103/18 104/104/18 100/105/18
f 103/103/18 100/105/18 99/106/18
f 101/101/19 102/102/19 104/99/19
f 101/101/19 104/99/19 103/100/19
f 111/107/17 109/108/17 97/102/17
f 111/107/17 97/102/17 105/95/17
f 110/109/20 111/110/20 105/98/20
f 110/109/20 105/98/20 106/111/20
f 112/112/19 110/113/19 106/96/19
f 112/112/19 106/96/19 101/101/19
f 114/107/19 113/108/19 102/102/19
f 114/107/19 102/102/19 108/95/19
f 115/114/21 114/115/21 108/116/21
f 115/114/21 108/116/21 107/97/21
f 116/112/17 115/113/17 107/96/17
f 116/112/17 107/96/17 98/101/17
f 118/117/19 117/118/19 113/108/19
f 118/117/19 113/108/19 114/107/19
f 119/119/22 118/120/22 114/97/22
f 119/119/22 114/97/22 115/113/22
f 120/121/17 119/119/17 115/113/17
f 120/121/17 115/113/17 116/112/17
f 123/117/17 121/118/17 109/108/17
f 123/117/17 109/108/17 111/107/17
f 122/122/23 123/117/23 111/107/23
f 122/122/23 111/107/23 110/98/23
f 124/121/19 122/119/19 110/113/19
f 124/121/19 110/113/19 112/112/19
f 127/123/17 125/124/17 121/118/17
f 127/123/17 121/118/17 123/117/17
f 126/125/24 127/122/24 123/126/24
f 126/125/24 123/126/24 122/127/24
f 128/128/19 126/129/19 122/119/19
f 128/128/19 122/119/19 124/121/19
f 136/123/19 129/124/19 117/118/19
f 136/123/19 117/118/19 118/117/19
f 135/120/25 136/130/25 118/131/25
f 135/120/25 118/131/25 119/132/25
f 130/128/17 135/129/17 119/119/17
f 130/128/17 119/119/17 120/121/17
f 99/99/22 131/105/22 132/133/22
f 99/99/22 132/133/22 103/134/22
f 133/105/23 134/133/23 100/134/23
f 133/105/23 100/134/23 104/99/23
f 133/103/16 132/104/16 131/105/16
f 133/103/16 131/105/16 134/106/16
f 136/120/18 135/129/18 127/123/18
f 136/120/18 127/123/18 126/122/18
f 132/106/19 133/105/19 129/124/19
f 132/106/19 129/124/19 128/128/19
f 134/106/17 131/105/17 125/124/17
f 134/106/17 125/124/17 130/128/17
f 138/135/17 137/136/17 139/137/17
f 138/135/17 139/137/17 140/138/17
f 141/139/16 137/136/16 138/140/16
f 141/139/16 138/140/16 142/141/16
f 140/142/18 139/137/18 143/143/18
f 140/142/18 143/143/18 144/104/18
f 139/137/22 137/136/22 141/139/22
f 139/137/22 141/139/22 143/143/22
f 142/144/23 138/135/23 140/138/23
f 142/144/23 140/138/23 144/145/23
f 146/135/17 145/136/17 147/137/17
f 146/135/17 147/137/17 148/138/17
f 149/139/16 145/136/16 146/140/16
f 149/139/16 146/140/16 150/141/16
f 148/142/18 147/137/18 151/143/18
f 148/142/18 151/143/18 152/104/18
f 147/137/22 145/136/22 149/139/22
f 147/137/22 149/139/22 151/143/22
f 150/144/23 146/135/23 148/138/23
f 150/144/23 148/138/23 152/145/23
o spinny_lower
v -0.268750 0.906250 -0.243750
v -0.268750 0.906250 -0.931250
v -0.268750 0.218750 -0.243750
v -0.268750 0.218750 -0.931250
v -0.268750 0.906250 -0.243750
v -0.268750 0.906250 -0.931250
v -0.268750 0.218750 -0.243750
v -0.268750 0.218750 -0.931250
v 0.268750 0.906250 -0.243750
v 0.268750 0.906250 -0.931250
v 0.268750 0.218750 -0.243750
v 0.268750 0.218750 -0.931250
v 0.268750 0.906250 -0.243750
v 0.268750 0.906250 -0.931250
v 0.268750 0.218750 -0.243750
v 0.268750 0.218750 -0.931250
vn 1.0000 -0.0000 -0.0000
vn -1.0000 -0.0000 -0.0000
vt 0.250000 0.984375
vt 0.173611 0.984375
vt 0.173611 0.812500
vt 0.250000 0.812500
s 1
usemtl m_8102c846-4c57-3976-ee6d-eb0527a5b728
f 154/146/26 153/147/26 155/148/26
f 154/146/26 155/148/26 156/149/26
f 159/149/27 157/146/27 158/147/27
f 159/149/27 158/147/27 160/148/27
f 162/146/26 161/147/26 163/148/26
f 162/146/26 163/148/26 164/149/26
f 167/149/27 165/146/27 166/147/27
f 167/149/27 166/147/27 168/148/27
o spinny_upper
v -0.268750 2.781250 -0.243750
v -0.268750 2.781250 -0.931250
v -0.268750 2.093750 -0.243750
v -0.268750 2.093750 -0.931250
v -0.268750 2.781250 -0.243750
v -0.268750 2.781250 -0.931250
v -0.268750 2.093750 -0.243750
v -0.268750 2.093750 -0.931250
v 0.268750 2.781250 -0.243750
v 0.268750 2.781250 -0.931250
v 0.268750 2.093750 -0.243750
v 0.268750 2.093750 -0.931250
v 0.268750 2.781250 -0.243750
v 0.268750 2.781250 -0.931250
v 0.268750 2.093750 -0.243750
v 0.268750 2.093750 -0.931250
vn 1.0000 -0.0000 -0.0000
vn -1.0000 -0.0000 -0.0000
vt 0.250000 0.984375
vt 0.173611 0.984375
vt 0.173611 0.812500
vt 0.250000 0.812500
s 1
usemtl m_8102c846-4c57-3976-ee6d-eb0527a5b728
f 170/150/28 169/151/28 171/152/28
f 170/150/28 171/152/28 172/153/28
f 175/153/29 173/150/29 174/151/29
f 175/153/29 174/151/29 176/152/29
f 178/150/28 177/151/28 179/152/28
f 178/150/28 179/152/28 180/153/28
f 183/153/29 181/150/29 182/151/29
f 183/153/29 182/151/29 184/152/29
