# Blender 4.4.0
# www.blender.org
mtllib puter.mtl
o Cube.001
v 0.125000 -0.187500 -0.125000
v 0.125000 -0.187500 -0.375000
v 0.125000 -0.312500 -0.125000
v 0.125000 -0.312500 -0.375000
v -0.125000 -0.187500 -0.125000
v -0.125000 -0.187500 -0.375000
v -0.125000 -0.312500 -0.125000
v -0.125000 -0.312500 -0.375000
v 0.312500 0.312500 0.125000
v 0.312500 0.312500 -0.062500
v 0.312500 -0.187500 0.125000
v 0.312500 -0.187500 -0.062500
v -0.312500 0.312500 0.125000
v -0.312500 0.312500 -0.062500
v -0.312500 -0.187500 0.125000
v -0.312500 -0.187500 -0.062500
v 0.250000 -0.250000 0.125000
v -0.250000 -0.250000 0.125000
v 0.250000 -0.250000 -0.062500
v -0.250000 -0.250000 -0.062500
v 0.250000 0.375000 0.125000
v 0.250000 0.375000 -0.062500
v -0.250000 0.375000 0.125000
v -0.250000 0.375000 -0.062500
v 0.250000 0.312500 0.125000
v -0.250000 0.312500 0.125000
v 0.250000 -0.187500 0.125000
v -0.250000 -0.187500 0.125000
v 0.250000 0.312500 0.062500
v -0.250000 0.312500 0.062500
v 0.250000 -0.187500 0.062500
v -0.250000 -0.187500 0.062500
v 0.187500 0.250000 0.125000
v -0.187500 0.250000 0.125000
v 0.187500 -0.125000 0.125000
v -0.187500 -0.125000 0.125000
v 0.250000 0.250000 -0.125000
v 0.250000 -0.125000 -0.125000
v -0.250000 0.250000 -0.125000
v -0.250000 -0.125000 -0.125000
v -0.187500 0.312500 -0.125000
v 0.187500 0.312500 -0.125000
v 0.187500 -0.187500 -0.125000
v -0.187500 -0.187500 -0.125000
v 0.250000 0.250000 -0.437500
v 0.250000 -0.125000 -0.437500
v -0.250000 0.250000 -0.437500
v -0.250000 -0.125000 -0.437500
v -0.187500 0.312500 -0.437500
v 0.187500 0.312500 -0.437500
v 0.187500 -0.187500 -0.437500
v -0.187500 -0.187500 -0.437500
v 0.187500 0.187500 -0.500000
v 0.187500 -0.062500 -0.500000
v -0.187500 0.187500 -0.500000
v -0.187500 -0.062500 -0.500000
v -0.125000 0.250000 -0.500000
v 0.125000 0.250000 -0.500000
v 0.125000 -0.125000 -0.500000
v -0.125000 -0.125000 -0.500000
vn 1.0000 -0.0000 -0.0000
vn -1.0000 -0.0000 -0.0000
vn -0.0000 -0.0000 1.0000
vn -0.0000 -0.0000 -1.0000
vn -0.0000 1.0000 -0.0000
vn -0.0000 -1.0000 -0.0000
vn 0.7071 -0.7071 -0.0000
vn -0.7071 -0.7071 -0.0000
vn 0.7071 0.7071 -0.0000
vn -0.7071 0.7071 -0.0000
vn 0.7071 -0.0000 0.7071
vn -0.0000 0.7071 0.7071
vn -0.7071 -0.0000 0.7071
vn -0.0000 -0.7071 0.7071
vn 0.7071 -0.0000 -0.7071
vn -0.7071 -0.0000 -0.7071
vn -0.0000 0.7071 -0.7071
vn 0.4082 0.4082 -0.8165
vn -0.4082 0.4082 -0.8165
vn -0.0000 -0.7071 -0.7071
vn -0.4082 -0.4082 -0.8165
vn 0.4082 -0.4082 -0.8165
vt 0.187500 0.833333
vt 0.104167 0.833333
vt 0.104167 0.791667
vt 0.187500 0.791667
vt 0.354167 0.791667
vt 0.354167 0.833333
vt 0.270833 0.833333
vt 0.270833 0.791667
vt 0.020833 0.833333
vt 0.020833 0.791667
vt 0.604167 0.770833
vt 0.541667 0.770833
vt 0.541667 0.604167
vt 0.604167 0.604167
vt 0.333333 0.604167
vt 0.333333 0.770833
vt 0.270833 0.770833
vt 0.270833 0.604167
vt 0.520833 0.791667
vt 0.520833 0.854167
vt 0.354167 0.854167
vt 0.520833 0.520833
vt 0.520833 0.583333
vt 0.354167 0.583333
vt 0.354167 0.520833
vt 0.500000 0.625000
vt 0.500000 0.750000
vt 0.375000 0.750000
vt 0.375000 0.625000
vt 0.125000 0.729167
vt 0.000000 0.729167
vt 0.000000 0.645833
vt 0.125000 0.645833
vt 0.541667 0.583333
vt 0.604167 0.583333
vt 0.270833 0.583333
vt 0.333333 0.583333
vt 0.020833 0.625000
vt 0.104167 0.625000
vt 0.604167 0.791667
vt 0.541667 0.791667
vt 0.104167 0.750000
vt 0.020833 0.750000
vt 0.333333 0.791667
vt 0.520833 0.770833
vt 0.520833 0.604167
vt 0.354167 0.604167
vt 0.354167 0.770833
vt 0.625000 0.625000
vt 0.625000 0.750000
vt 0.250000 0.750000
vt 0.250000 0.625000
vt 0.500000 0.875000
vt 0.375000 0.875000
vt 0.625000 0.770833
vt 0.625000 0.791667
vt 0.250000 0.791667
vt 0.250000 0.770833
vt 0.375000 0.500000
vt 0.500000 0.500000
vt 0.250000 0.604167
vt 0.250000 0.583333
vt 0.625000 0.583333
vt 0.625000 0.604167
vt 0.729167 0.625000
vt 0.729167 0.750000
vt 0.145833 0.750000
vt 0.145833 0.625000
vt 0.500000 0.979167
vt 0.375000 0.979167
vt 0.729167 0.770833
vt 0.145833 0.770833
vt 0.375000 0.395833
vt 0.500000 0.395833
vt 0.145833 0.604167
vt 0.729167 0.604167
vt 0.750000 0.645833
vt 0.750000 0.729167
vt 0.479167 1.000000
vt 0.395833 1.000000
vt 0.750000 0.750000
vt 0.750000 0.770833
vt 0.125000 0.770833
vt 0.125000 0.750000
vt 0.395833 0.375000
vt 0.479167 0.375000
vt 0.125000 0.625000
vt 0.125000 0.604167
vt 0.750000 0.604167
vt 0.750000 0.625000
s 1
usemtl m_4090d9fd-cd1b-ff43-04fe-c790d63d81c5
f 2/1/1 1/2/1 3/3/1
f 2/1/1 3/3/1 4/4/1
f 7/5/2 5/6/2 6/7/2
f 7/5/2 6/7/2 8/8/2
f 3/3/3 1/2/3 5/9/3
f 3/3/3 5/9/3 7/10/3
f 6/7/4 2/1/4 4/4/4
f 6/7/4 4/4/4 8/8/4
f 10/11/1 9/12/1 11/13/1
f 10/11/1 11/13/1 12/14/1
f 15/15/2 13/16/2 14/17/2
f 15/15/2 14/17/2 16/18/2
f 23/5/5 21/19/5 22/20/5
f 23/5/5 22/20/5 24/21/5
f 19/22/6 17/23/6 18/24/6
f 19/22/6 18/24/6 20/25/6
f 35/26/3 33/27/3 34/28/3
f 35/26/3 34/28/3 36/29/3
f 55/30/4 53/31/4 54/32/4
f 55/30/4 54/32/4 56/33/4
f 17/34/7 19/35/7 12/14/7
f 17/34/7 12/14/7 11/13/7
f 18/24/3 17/23/3 11/13/3
f 18/24/3 11/13/3 15/15/3
f 20/36/8 18/37/8 15/15/8
f 20/36/8 15/15/8 16/18/8
f 59/38/4 60/39/4 56/33/4
f 59/38/4 56/33/4 54/32/4
f 21/19/3 23/5/3 13/16/3
f 21/19/3 13/16/3 9/12/3
f 22/40/9 21/41/9 9/12/9
f 22/40/9 9/12/9 10/11/9
f 57/42/4 58/43/4 53/31/4
f 57/42/4 53/31/4 55/30/4
f 23/44/10 24/8/10 14/17/10
f 23/44/10 14/17/10 13/16/10
f 25/45/3 27/46/3 11/13/3
f 25/45/3 11/13/3 9/12/3
f 28/47/3 26/48/3 13/16/3
f 28/47/3 13/16/3 15/15/3
f 29/45/2 31/46/2 27/13/2
f 29/45/2 27/13/2 25/12/2
f 30/48/6 29/45/6 25/19/6
f 30/48/6 25/19/6 26/5/6
f 32/47/1 30/48/1 26/16/1
f 32/47/1 26/16/1 28/15/1
f 31/46/5 32/47/5 28/24/5
f 31/46/5 28/24/5 27/23/5
f 33/27/11 35/26/11 31/46/11
f 33/27/11 31/46/11 29/45/11
f 34/28/12 33/27/12 29/45/12
f 34/28/12 29/45/12 30/48/12
f 36/29/13 34/28/13 30/48/13
f 36/29/13 30/48/13 32/47/13
f 35/26/14 36/29/14 32/47/14
f 35/26/14 32/47/14 31/46/14
f 38/49/15 37/50/15 10/11/15
f 38/49/15 10/11/15 12/14/15
f 39/51/16 40/52/16 16/18/16
f 39/51/16 16/18/16 14/17/16
f 42/53/17 41/54/17 24/21/17
f 42/53/17 24/21/17 22/20/17
f 37/55/18 42/56/18 22/40/18
f 37/55/18 22/40/18 10/11/18
f 41/57/19 39/58/19 14/17/19
f 41/57/19 14/17/19 24/8/19
f 44/59/20 43/60/20 19/22/20
f 44/59/20 19/22/20 20/25/20
f 40/61/21 44/62/21 20/36/21
f 40/61/21 20/36/21 16/18/21
f 43/63/22 38/64/22 12/14/22
f 43/63/22 12/14/22 19/35/22
f 46/65/1 45/66/1 37/50/1
f 46/65/1 37/50/1 38/49/1
f 47/67/2 48/68/2 40/52/2
f 47/67/2 40/52/2 39/51/2
f 50/69/5 49/70/5 41/54/5
f 50/69/5 41/54/5 42/53/5
f 45/66/9 50/71/9 42/55/9
f 45/66/9 42/55/9 37/50/9
f 49/72/10 47/67/10 39/51/10
f 49/72/10 39/51/10 41/58/10
f 52/73/6 51/74/6 43/60/6
f 52/73/6 43/60/6 44/59/6
f 48/68/8 52/75/8 44/61/8
f 48/68/8 44/61/8 40/52/8
f 51/76/7 46/65/7 38/49/7
f 51/76/7 38/49/7 43/64/7
f 54/77/15 53/78/15 45/66/15
f 54/77/15 45/66/15 46/65/15
f 55/30/16 56/33/16 48/68/16
f 55/30/16 48/68/16 47/67/16
f 58/79/17 57/80/17 49/70/17
f 58/79/17 49/70/17 50/69/17
f 53/81/18 58/82/18 50/71/18
f 53/81/18 50/71/18 45/66/18
f 57/83/19 55/84/19 47/67/19
f 57/83/19 47/67/19 49/72/19
f 60/85/20 59/86/20 51/74/20
f 60/85/20 51/74/20 52/73/20
f 56/87/21 60/88/21 52/75/21
f 56/87/21 52/75/21 48/68/21
f 59/89/22 54/90/22 46/65/22
f 59/89/22 46/65/22 51/76/22
o Cube.001_Cube.005
v 0.375000 -0.437500 0.500000
v 0.375000 -0.437500 0.187500
v 0.375000 -0.500000 0.500000
v 0.375000 -0.500000 0.187500
v -0.375000 -0.437500 0.500000
v -0.375000 -0.437500 0.187500
v -0.375000 -0.500000 0.500000
v -0.375000 -0.500000 0.187500
vn 1.0000 -0.0000 -0.0000
vn -1.0000 -0.0000 -0.0000
vn -0.0000 1.0000 -0.0000
vn -0.0000 -1.0000 -0.0000
vn -0.0000 -0.0000 1.0000
vn -0.0000 -0.0000 -1.0000
vt 0.625000 0.187500
vt 0.625000 0.083333
vt 0.645833 0.083333
vt 0.645833 0.187500
vt 0.354167 0.083333
vt 0.375000 0.083333
vt 0.375000 0.187500
vt 0.354167 0.187500
vt 0.895833 0.083333
vt 0.895833 0.187500
vt 0.625000 0.062500
vt 0.375000 0.062500
vt 0.625000 0.208333
vt 0.375000 0.208333
s 1
usemtl m_4090d9fd-cd1b-ff43-04fe-c790d63d81c5
f 62/91/23 61/92/23 63/93/23
f 62/91/23 63/93/23 64/94/23
f 67/95/24 65/96/24 66/97/24
f 67/95/24 66/97/24 68/98/24
f 65/96/25 61/92/25 62/91/25
f 65/96/25 62/91/25 66/97/25
f 64/94/26 63/93/26 67/99/26
f 64/94/26 67/99/26 68/100/26
f 63/101/27 61/92/27 65/96/27
f 63/101/27 65/96/27 67/102/27
f 66/97/28 62/91/28 64/103/28
f 66/97/28 64/103/28 68/104/28
o Cube.002
v 0.281250 -0.312500 0.062500
v 0.281250 -0.312500 -0.437500
v 0.281250 -0.500000 0.062500
v 0.281250 -0.500000 -0.437500
v -0.281250 -0.312500 0.062500
v -0.281250 -0.312500 -0.437500
v -0.281250 -0.500000 0.062500
v -0.281250 -0.500000 -0.437500
v 0.218750 -0.312500 -0.500000
v 0.218750 -0.500000 -0.500000
v -0.218750 -0.312500 -0.500000
v -0.218750 -0.500000 -0.500000
v 0.218750 -0.312500 0.125000
v -0.218750 -0.312500 0.125000
v 0.218750 -0.500000 0.125000
v -0.218750 -0.500000 0.125000
vn 1.0000 -0.0000 -0.0000
vn -1.0000 -0.0000 -0.0000
vn -0.0000 1.0000 -0.0000
vn -0.0000 -1.0000 -0.0000
vn -0.0000 -0.0000 1.0000
vn -0.0000 -0.0000 -1.0000
vn 0.7071 -0.0000 -0.7071
vn -0.7071 -0.0000 -0.7071
vn 0.7071 -0.0000 0.7071
vn -0.7071 -0.0000 0.7071
vt 0.520833 0.062500
vt 0.354167 0.062500
vt 0.354167 0.000000
vt 0.520833 0.000000
vt 0.166667 0.000000
vt 0.166667 0.062500
vt 0.000000 0.062500
vt 0.000000 0.000000
vt 0.166667 0.083333
vt 0.354167 0.083333
vt 0.354167 0.250000
vt 0.166667 0.250000
vt 0.354167 0.354167
vt 0.354167 0.520833
vt 0.166667 0.520833
vt 0.166667 0.354167
vt 0.333333 0.000000
vt 0.333333 0.062500
vt 0.187500 0.062500
vt 0.187500 0.000000
vt 0.187500 0.270833
vt 0.333333 0.270833
vt 0.333333 0.333333
vt 0.187500 0.333333
vt 0.354167 0.270833
vt 0.354167 0.333333
vt 0.166667 0.333333
vt 0.166667 0.270833
vt 0.333333 0.541667
vt 0.187500 0.541667
s 1
usemtl m_4090d9fd-cd1b-ff43-04fe-c790d63d81c5
f 70/105/29 69/106/29 71/107/29
f 70/105/29 71/107/29 72/108/29
f 75/109/30 73/110/30 74/111/30
f 75/109/30 74/111/30 76/112/30
f 73/113/31 69/114/31 70/115/31
f 73/113/31 70/115/31 74/116/31
f 72/117/32 71/118/32 75/119/32
f 72/117/32 75/119/32 76/120/32
f 83/121/33 81/122/33 82/123/33
f 83/121/33 82/123/33 84/124/33
f 79/125/34 77/126/34 78/127/34
f 79/125/34 78/127/34 80/128/34
f 77/126/31 79/125/31 74/116/31
f 77/126/31 74/116/31 70/115/31
f 78/127/35 77/126/35 70/129/35
f 78/127/35 70/129/35 72/130/35
f 80/128/32 78/127/32 72/117/32
f 80/128/32 72/117/32 76/120/32
f 79/125/36 80/128/36 76/131/36
f 79/125/36 76/131/36 74/132/36
f 81/122/37 83/121/37 71/107/37
f 81/122/37 71/107/37 69/106/37
f 82/123/31 81/122/31 69/114/31
f 82/123/31 69/114/31 73/113/31
f 84/124/38 82/123/38 73/110/38
f 84/124/38 73/110/38 75/109/38
f 83/133/32 84/134/32 75/119/32
f 83/133/32 75/119/32 71/118/32
