# Blender 4.4.0
# www.blender.org
mtllib scaffold.mtl
o Cube_Cube.001
v 0.250000 0.875000 -0.468750
v 0.250000 1.000000 -0.468750
v -0.250000 -0.000000 -0.468750
v -0.250000 0.125000 -0.468750
v 0.250000 0.875000 -0.406250
v 0.250000 1.000000 -0.406250
v -0.250000 -0.000000 -0.406250
v -0.250000 0.125000 -0.406250
v -0.250000 0.875000 -0.406250
v -0.250000 1.000000 -0.406250
v 0.250000 -0.000000 -0.406250
v 0.250000 0.125000 -0.406250
v -0.250000 0.875000 -0.468750
v -0.250000 1.000000 -0.468750
v 0.250000 -0.000000 -0.468750
v 0.250000 0.125000 -0.468750
v -0.250000 0.875000 0.468750
v -0.250000 1.000000 0.468750
v 0.250000 0.000000 0.468750
v 0.250000 0.125000 0.468750
v -0.250000 0.875000 0.406250
v -0.250000 1.000000 0.406250
v 0.250000 0.000000 0.406250
v 0.250000 0.125000 0.406250
v 0.250000 0.875000 0.406250
v 0.250000 1.000000 0.406250
v -0.250000 0.000000 0.406250
v -0.250000 0.125000 0.406250
v 0.250000 0.875000 0.468750
v 0.250000 1.000000 0.468750
v -0.250000 0.000000 0.468750
v -0.250000 0.125000 0.468750
v -0.343750 0.875000 -0.375000
v -0.343750 1.000000 -0.375000
v -0.343750 0.000000 0.375000
v -0.343750 0.125000 0.375000
v -0.281250 0.875000 -0.375000
v -0.281250 1.000000 -0.375000
v -0.281250 0.000000 0.375000
v -0.281250 0.125000 0.375000
v -0.281250 0.875000 0.375000
v -0.281250 1.000000 0.375000
v -0.281250 -0.000000 -0.375000
v -0.281250 0.125000 -0.375000
v -0.343750 0.875000 0.375000
v -0.343750 1.000000 0.375000
v -0.343750 -0.000000 -0.375000
v -0.343750 0.125000 -0.375000
v 0.343750 0.875000 0.375000
v 0.343750 1.000000 0.375000
v 0.343750 -0.000000 -0.375000
v 0.343750 0.125000 -0.375000
v 0.281250 0.875000 0.375000
v 0.281250 1.000000 0.375000
v 0.281250 -0.000000 -0.375000
v 0.281250 0.125000 -0.375000
v 0.281250 0.875000 -0.375000
v 0.281250 1.000000 -0.375000
v 0.281250 0.000000 0.375000
v 0.281250 0.125000 0.375000
v 0.343750 0.875000 -0.375000
v 0.343750 1.000000 -0.375000
v 0.343750 0.000000 0.375000
v 0.343750 0.125000 0.375000
v 0.250000 1.000000 -0.500000
v 0.250000 1.000000 -0.375000
v 0.250000 -0.000000 -0.500000
v 0.250000 -0.000000 -0.375000
v 0.375000 1.000000 -0.500000
v 0.375000 1.000000 -0.375000
v 0.375000 -0.000000 -0.500000
v 0.375000 -0.000000 -0.375000
v 0.250000 1.000000 0.375000
v 0.250000 1.000000 0.500000
v 0.250000 0.000000 0.375000
v 0.250000 0.000000 0.500000
v 0.375000 1.000000 0.375000
v 0.375000 1.000000 0.500000
v 0.375000 0.000000 0.375000
v 0.375000 0.000000 0.500000
v -0.250000 1.000000 0.500000
v -0.250000 1.000000 0.375000
v -0.250000 0.000000 0.500000
v -0.250000 0.000000 0.375000
v -0.375000 1.000000 0.500000
v -0.375000 1.000000 0.375000
v -0.375000 0.000000 0.500000
v -0.375000 0.000000 0.375000
v -0.250000 1.000000 -0.375000
v -0.250000 1.000000 -0.500000
v -0.250000 -0.000000 -0.375000
v -0.250000 -0.000000 -0.500000
v -0.375000 1.000000 -0.375000
v -0.375000 1.000000 -0.500000
v -0.375000 -0.000000 -0.375000
v -0.375000 -0.000000 -0.500000
v 0.356250 0.593750 0.093750
v 0.356250 0.593750 -0.093750
v 0.356250 0.406250 0.093750
v 0.356250 0.406250 -0.093750
v 0.268750 0.593750 0.093750
v 0.268750 0.593750 -0.093750
v 0.268750 0.406250 0.093750
v 0.268750 0.406250 -0.093750
v -0.356250 0.593750 -0.093750
v -0.356250 0.593750 0.093750
v -0.356250 0.406250 -0.093750
v -0.356250 0.406250 0.093750
v -0.268750 0.593750 -0.093750
v -0.268750 0.593750 0.093750
v -0.268750 0.406250 -0.093750
v -0.268750 0.406250 0.093750
v 0.093750 0.593750 -0.481250
v -0.093750 0.593750 -0.481250
v 0.093750 0.406250 -0.481250
v -0.093750 0.406250 -0.481250
v 0.093750 0.593750 -0.393750
v -0.093750 0.593750 -0.393750
v 0.093750 0.406250 -0.393750
v -0.093750 0.406250 -0.393750
v -0.093750 0.593750 0.481250
v 0.093750 0.593750 0.481250
v -0.093750 0.406250 0.481250
v 0.093750 0.406250 0.481250
v -0.093750 0.593750 0.393750
v 0.093750 0.593750 0.393750
v -0.093750 0.406250 0.393750
v 0.093750 0.406250 0.393750
vn -0.0000 -0.0000 -1.0000
vn -0.0000 -0.0000 1.0000
vn 0.8682 -0.4961 -0.0000
vn -0.8682 0.4961 -0.0000
vn -0.8682 -0.4961 -0.0000
vn 0.8682 0.4961 -0.0000
vn -1.0000 -0.0000 -0.0000
vn 1.0000 -0.0000 -0.0000
vn -0.0000 -0.6508 -0.7593
vn -0.0000 0.6508 0.7593
vn -0.0000 -0.6508 0.7593
vn -0.0000 0.6508 -0.7593
vn -0.0000 1.0000 -0.0000
vn -0.0000 -1.0000 -0.0000
vt 0.312500 1.000000
vt 0.187500 1.000000
vt 0.187500 0.000000
vt 0.312500 0.000000
vt 0.125000 1.000000
vt 0.125000 0.000000
vt 0.375000 1.000000
vt 0.375000 0.000000
vt 0.000000 1.000000
vt 0.000000 0.000000
vt 0.000000 0.875000
vt 0.125000 0.875000
vt 0.125000 0.125000
vt 0.000000 0.125000
vt 0.562500 0.187500
vt 0.375000 0.187500
vt 0.562500 0.000000
vt 0.375000 0.125000
vt 0.562500 0.125000
vt 0.562500 0.062500
vt 0.375000 0.062500
vt 0.437500 0.000000
vt 0.437500 0.187500
vt 0.500000 0.187500
vt 0.500000 0.000000
s 1
usemtl m_aa8e4df5-4b44-1fd3-d377-f49050722599
f 2/1/1 1/2/1 3/3/1
f 2/1/1 3/3/1 4/4/1
f 7/2/2 5/3/2 6/4/2
f 7/2/2 6/4/2 8/1/2
f 3/3/3 1/2/3 5/5/3
f 3/3/3 5/5/3 7/6/3
f 6/7/4 2/1/4 4/4/4
f 6/7/4 4/4/4 8/8/4
f 10/1/2 9/2/2 11/3/2
f 10/1/2 11/3/2 12/4/2
f 15/2/1 13/3/1 14/4/1
f 15/2/1 14/4/1 16/1/1
f 11/3/5 9/2/5 13/5/5
f 11/3/5 13/5/5 15/6/5
f 14/7/6 10/1/6 12/4/6
f 14/7/6 12/4/6 16/8/6
f 18/1/2 17/2/2 19/3/2
f 18/1/2 19/3/2 20/4/2
f 23/2/1 21/3/1 22/4/1
f 23/2/1 22/4/1 24/1/1
f 19/3/5 17/2/5 21/5/5
f 19/3/5 21/5/5 23/6/5
f 22/7/6 18/1/6 20/4/6
f 22/7/6 20/4/6 24/8/6
f 26/1/1 25/2/1 27/3/1
f 26/1/1 27/3/1 28/4/1
f 31/2/2 29/3/2 30/4/2
f 31/2/2 30/4/2 32/1/2
f 27/3/3 25/2/3 29/5/3
f 27/3/3 29/5/3 31/6/3
f 30/7/4 26/1/4 28/4/4
f 30/7/4 28/4/4 32/8/4
f 34/1/7 33/2/7 35/3/7
f 34/1/7 35/3/7 36/4/7
f 39/2/8 37/3/8 38/4/8
f 39/2/8 38/4/8 40/1/8
f 35/3/9 33/2/9 37/5/9
f 35/3/9 37/5/9 39/6/9
f 38/7/10 34/1/10 36/4/10
f 38/7/10 36/4/10 40/8/10
f 42/1/8 41/2/8 43/3/8
f 42/1/8 43/3/8 44/4/8
f 47/2/7 45/3/7 46/4/7
f 47/2/7 46/4/7 48/1/7
f 43/3/11 41/2/11 45/5/11
f 43/3/11 45/5/11 47/6/11
f 46/7/12 42/1/12 44/4/12
f 46/7/12 44/4/12 48/8/12
f 50/1/8 49/2/8 51/3/8
f 50/1/8 51/3/8 52/4/8
f 55/2/7 53/3/7 54/4/7
f 55/2/7 54/4/7 56/1/7
f 51/3/11 49/2/11 53/5/11
f 51/3/11 53/5/11 55/6/11
f 54/7/12 50/1/12 52/4/12
f 54/7/12 52/4/12 56/8/12
f 58/1/7 57/2/7 59/3/7
f 58/1/7 59/3/7 60/4/7
f 63/2/8 61/3/8 62/4/8
f 63/2/8 62/4/8 64/1/8
f 59/3/9 57/2/9 61/5/9
f 59/3/9 61/5/9 63/6/9
f 62/7/10 58/1/10 60/4/10
f 62/7/10 60/4/10 64/8/10
f 66/5/7 65/9/7 67/10/7
f 66/5/7 67/10/7 68/6/7
f 71/6/8 69/5/8 70/9/8
f 71/6/8 70/9/8 72/10/8
f 69/11/13 65/12/13 66/5/13
f 69/11/13 66/5/13 70/9/13
f 68/6/14 67/13/14 71/14/14
f 68/6/14 71/14/14 72/10/14
f 67/6/1 65/5/1 69/9/1
f 67/6/1 69/9/1 71/10/1
f 70/5/2 66/9/2 68/10/2
f 70/5/2 68/10/2 72/6/2
f 74/5/7 73/9/7 75/10/7
f 74/5/7 75/10/7 76/6/7
f 79/6/8 77/5/8 78/9/8
f 79/6/8 78/9/8 80/10/8
f 77/11/13 73/12/13 74/5/13
f 77/11/13 74/5/13 78/9/13
f 76/6/14 75/13/14 79/14/14
f 76/6/14 79/14/14 80/10/14
f 75/6/1 73/5/1 77/9/1
f 75/6/1 77/9/1 79/10/1
f 78/5/2 74/9/2 76/10/2
f 78/5/2 76/10/2 80/6/2
f 82/5/8 81/9/8 83/10/8
f 82/5/8 83/10/8 84/6/8
f 87/6/7 85/5/7 86/9/7
f 87/6/7 86/9/7 88/10/7
f 85/11/13 81/12/13 82/5/13
f 85/11/13 82/5/13 86/9/13
f 84/6/14 83/13/14 87/14/14
f 84/6/14 87/14/14 88/10/14
f 83/6/2 81/5/2 85/9/2
f 83/6/2 85/9/2 87/10/2
f 86/5/1 82/9/1 84/10/1
f 86/5/1 84/10/1 88/6/1
f 90/5/8 89/9/8 91/10/8
f 90/5/8 91/10/8 92/6/8
f 95/6/7 93/5/7 94/9/7
f 95/6/7 94/9/7 96/10/7
f 93/11/13 89/12/13 90/5/13
f 93/11/13 90/5/13 94/9/13
f 92/6/14 91/13/14 95/14/14
f 92/6/14 95/14/14 96/10/14
f 91/6/2 89/5/2 93/9/2
f 91/6/2 93/9/2 95/10/2
f 94/5/1 90/9/1 92/10/1
f 94/5/1 92/10/1 96/6/1
f 98/15/8 97/16/8 99/8/8
f 98/15/8 99/8/8 100/17/8
f 103/8/7 101/16/7 102/15/7
f 103/8/7 102/15/7 104/17/7
f 101/16/13 97/18/13 98/19/13
f 101/16/13 98/19/13 102/15/13
f 100/20/14 99/21/14 103/8/14
f 100/20/14 103/8/14 104/17/14
f 99/22/2 97/23/2 101/16/2
f 99/22/2 101/16/2 103/8/2
f 102/15/1 98/24/1 100/25/1
f 102/15/1 100/25/1 104/17/1
f 106/15/7 105/16/7 107/8/7
f 106/15/7 107/8/7 108/17/7
f 111/8/8 109/16/8 110/15/8
f 111/8/8 110/15/8 112/17/8
f 109/16/13 105/18/13 106/19/13
f 109/16/13 106/19/13 110/15/13
f 108/20/14 107/21/14 111/8/14
f 108/20/14 111/8/14 112/17/14
f 107/22/1 105/23/1 109/16/1
f 107/22/1 109/16/1 111/8/1
f 110/15/2 106/24/2 108/25/2
f 110/15/2 108/25/2 112/17/2
f 114/15/1 113/16/1 115/8/1
f 114/15/1 115/8/1 116/17/1
f 119/8/2 117/16/2 118/15/2
f 119/8/2 118/15/2 120/17/2
f 117/16/13 113/18/13 114/19/13
f 117/16/13 114/19/13 118/15/13
f 116/20/14 115/21/14 119/8/14
f 116/20/14 119/8/14 120/17/14
f 115/22/8 113/23/8 117/16/8
f 115/22/8 117/16/8 119/8/8
f 118/15/7 114/24/7 116/25/7
f 118/15/7 116/25/7 120/17/7
f 122/15/2 121/16/2 123/8/2
f 122/15/2 123/8/2 124/17/2
f 127/8/1 125/16/1 126/15/1
f 127/8/1 126/15/1 128/17/1
f 125/16/13 121/18/13 122/19/13
f 125/16/13 122/19/13 126/15/13
f 124/20/14 123/21/14 127/8/14
f 124/20/14 127/8/14 128/17/14
f 123/22/7 121/23/7 125/16/7
f 123/22/7 125/16/7 127/8/7
f 126/15/8 122/24/8 124/25/8
f 126/15/8 124/25/8 128/17/8
